<svg width="16" height="25" viewBox="0 0 16 25" fill="none" xmlns="http://www.w3.org/2000/svg">
<path d="M3.6315 0C1.62588 0 0 1.62588 0 3.6315C0 5.63712 1.62588 7.263 3.6315 7.263H12.105C14.1107 7.263 15.7365 5.63712 15.7365 3.6315C15.7365 1.62588 14.1107 0 12.105 0H3.6315Z" fill="#E8E5F0"/>
<path d="M12.1042 8.47351C10.0985 8.47351 8.47266 10.0993 8.47266 12.105C8.47266 14.1107 10.0985 15.7365 12.1042 15.7365C14.1098 15.7365 15.7357 14.1107 15.7357 12.105C15.7357 10.0993 14.1098 8.47351 12.1042 8.47351Z" fill="#E8E5F0"/>
<path d="M0 12.105C0 10.0993 1.62588 8.47351 3.6315 8.47351H7.263V15.7365H3.6315C1.62588 15.7365 0 14.1107 0 12.105Z" fill="#E8E5F0"/>
<path d="M3.6315 16.947C1.62588 16.947 0 18.5728 0 20.5785C0 22.5842 1.62588 24.21 3.6315 24.21C5.63718 24.21 7.263 22.5842 7.263 20.5785V16.947H3.6315Z" fill="#E8E5F0"/>
</svg>
