<svg width="25" height="25" viewBox="0 0 25 25" fill="none" xmlns="http://www.w3.org/2000/svg">
<path d="M12.4356 1.04036e-06C5.56491 -0.00277725 0 5.55935 0 12.4245C0 17.8533 3.4812 22.468 8.32931 24.1628C8.98221 24.3267 8.88219 23.8627 8.88219 23.546V21.3928C5.11205 21.8346 4.95925 19.3397 4.70642 18.9229C4.19522 18.0505 2.98666 17.8283 3.34784 17.4115C4.20633 16.9698 5.08149 17.5227 6.09557 19.0202C6.82903 20.1065 8.25985 19.9231 8.98499 19.7425C9.14335 19.0896 9.4823 18.5062 9.94905 18.0533C6.04278 17.3532 4.4147 14.9694 4.4147 12.1356C4.4147 10.7603 4.86756 9.49619 5.75662 8.47656C5.18984 6.79569 5.8094 5.35654 5.89275 5.14261C7.50694 4.99814 9.18502 6.29838 9.3156 6.40118C10.2324 6.15391 11.2799 6.02333 12.4523 6.02333C13.6303 6.02333 14.6805 6.15946 15.6056 6.40951C15.9196 6.17058 17.4754 5.05371 18.9757 5.18984C19.0563 5.40377 19.662 6.80958 19.1285 8.46822C20.0287 9.49063 20.4871 10.7659 20.4871 12.1439C20.4871 14.9833 18.8479 17.3699 14.9305 18.0589C15.2661 18.3888 15.5325 18.7824 15.7142 19.2165C15.896 19.6506 15.9894 20.1165 15.9891 20.5871V23.7127C16.0113 23.9627 15.9891 24.21 16.4058 24.21C21.3261 22.5514 24.8685 17.9033 24.8685 12.4273C24.8685 5.55935 19.3008 1.04036e-06 12.4356 1.04036e-06Z" fill="#E8E5F0"/>
</svg>
