<svg width="25" height="25" viewBox="0 0 25 25" fill="none" xmlns="http://www.w3.org/2000/svg">
<path d="M23.2416 0H0.9684C0.432754 0 0 0.432754 0 0.9684V23.2416C0 23.7772 0.432754 24.21 0.9684 24.21H23.2416C23.7772 24.21 24.21 23.7772 24.21 23.2416V0.9684C24.21 0.432754 23.7772 0 23.2416 0ZM7.18129 20.6299H3.58913V9.07572H7.18129V20.6299ZM5.38672 7.49602C4.97493 7.49602 4.57239 7.37391 4.22999 7.14513C3.8876 6.91635 3.62074 6.59118 3.46315 6.21073C3.30557 5.83028 3.26433 5.41165 3.34467 5.00777C3.42501 4.60389 3.6233 4.2329 3.91449 3.94172C4.20567 3.65054 4.57665 3.45224 4.98054 3.37191C5.38442 3.29157 5.80305 3.3328 6.18349 3.49039C6.56394 3.64797 6.88911 3.91484 7.11789 4.25723C7.34667 4.59962 7.46878 5.00217 7.46878 5.41396C7.46576 6.56394 6.53367 7.49602 5.38672 7.49602ZM20.6299 20.6299H17.0408V15.0102C17.0408 13.6696 17.0166 11.9476 15.1736 11.9476C13.3064 11.9476 13.0189 13.4063 13.0189 14.9134V20.6299H9.43282V9.07572H12.8767V10.6554H12.9251C13.4033 9.74755 14.5744 8.78823 16.3236 8.78823C19.9611 8.78823 20.6299 11.182 20.6299 14.293V20.6299Z" fill="#E8E5F0"/>
</svg>
