<svg width="73" height="51" viewBox="0 0 73 51" fill="none" xmlns="http://www.w3.org/2000/svg">
<path d="M18.0835 4.19801C23.2439 4.41195 27.2339 5.94094 29.9567 8.75001C32.3797 11.3855 33.7502 14.8193 33.8077 18.3989C33.8077 18.406 33.8077 18.4131 33.8077 18.4203V47.9758C27.8066 47.8817 23.5648 46.4411 21.1943 43.6884C20.4822 42.8572 19.9429 41.8924 19.608 40.8503C19.2732 39.8083 19.1493 38.71 19.2438 37.6195C19.249 37.5872 19.2516 37.5546 19.2517 37.5218V10.1228C19.2517 7.04988 18.6455 5.22636 18.0864 4.19801M16.8027 3.53906C16.8027 3.53906 18.6205 4.9026 18.6205 10.1228V37.5218C18.6205 37.5218 16.889 48.6134 34.4417 48.6134V18.4203C34.4417 18.4203 34.9409 3.53906 16.8027 3.53906Z" fill="#7E8FF2"/>
<path d="M54.1268 4.19872C53.5677 5.22708 52.9616 7.0513 52.9616 10.1235V37.5225C52.9618 37.5548 52.9644 37.587 52.9694 37.6188C53.0655 38.7084 52.9431 39.8062 52.6096 40.848C52.276 41.8897 51.7379 42.8544 51.0268 43.6855C48.6577 46.4404 44.4124 47.8824 38.4041 47.9765V18.421C38.4041 18.4138 38.4041 18.4067 38.4041 18.3996C38.4562 14.8244 39.823 11.3936 42.2437 8.76214C44.9679 5.94593 48.9622 4.41195 54.1304 4.19801M55.4141 3.53906C37.2752 3.53906 37.7709 18.4203 37.7709 18.4203V48.6134C55.3413 48.6134 53.597 37.5218 53.597 37.5218V10.1235C53.597 4.9026 55.4148 3.53978 55.4148 3.53978L55.4141 3.53906Z" fill="#7E8FF2"/>
<path d="M55.8543 4.91472C59.3487 8.71364 61.0895 12.6167 61.0296 16.5247C60.8788 20.103 59.4193 23.5013 56.9283 26.0744L56.9133 26.0887L43.4049 39.5971L36.0132 46.9888C31.8349 42.6779 29.8545 38.6593 30.1255 35.0372C30.2098 33.9461 30.5109 32.8828 31.0111 31.9094C31.5113 30.936 32.2006 30.0722 33.0387 29.3685C33.064 29.3491 33.0878 29.3279 33.11 29.305L52.484 9.93098C54.6598 7.76302 55.5205 6.04006 55.8514 4.91401M55.4086 3.53906C55.4086 3.53906 55.7224 5.81114 52.0368 9.48241L32.6657 28.8578C32.6657 28.8578 23.5959 35.4737 36.0096 47.8867L43.8542 40.0421L57.3626 26.533C57.3626 26.533 68.2316 16.3607 55.4122 3.53978L55.4086 3.53906Z" fill="#7E8FF2"/>
<path d="M16.3588 4.91472C16.6897 6.04077 17.5504 7.76302 19.7255 9.92955L39.0967 29.305C39.1189 29.3276 39.1427 29.3486 39.168 29.3677C40.0064 30.0715 40.696 30.9353 41.1965 31.9088C41.697 32.8823 41.9982 33.9459 42.0826 35.0372C42.3536 38.6593 40.3711 42.6779 36.1949 46.9888L28.8053 39.5964L15.2962 26.088L15.2819 26.0744C12.7941 23.5001 11.3373 20.1024 11.1878 16.5254C11.1286 12.6145 12.8658 8.71364 16.3552 4.91543M16.7974 3.53978C3.99357 16.36 14.8491 26.5351 14.8491 26.5351L28.3574 40.0442L36.202 47.8888C48.6136 35.4723 39.5445 28.8571 39.5445 28.8571L20.1698 9.48241C16.485 5.81114 16.7981 3.53906 16.7981 3.53906L16.7974 3.53978Z" fill="#7E8FF2"/>
<path d="M35.9463 2.41797V49.7373" stroke="#7E8FF2" stroke-width="2" stroke-linecap="round" stroke-linejoin="round"/>
<path d="M2.41797 16.54L35.8787 50.0008" stroke="#7E8FF2" stroke-width="2" stroke-linecap="round" stroke-linejoin="round"/>
<path d="M35.9459 4.83512C37.2811 4.83512 38.3634 3.75274 38.3634 2.41756C38.3634 1.08238 37.2811 0 35.9459 0C34.6107 0 33.5283 1.08238 33.5283 2.41756C33.5283 3.75274 34.6107 4.83512 35.9459 4.83512Z" fill="#7E8FF2"/>
<path d="M2.41756 18.9572C3.75274 18.9572 4.83512 17.8748 4.83512 16.5396C4.83512 15.2044 3.75274 14.1221 2.41756 14.1221C1.08238 14.1221 0 15.2044 0 16.5396C0 17.8748 1.08238 18.9572 2.41756 18.9572Z" fill="#7E8FF2"/>
<path d="M69.7156 16.54L36.2549 50.0008" stroke="#7E8FF2" stroke-width="2" stroke-linecap="round" stroke-linejoin="round"/>
<path d="M69.7164 18.9572C71.0516 18.9572 72.1339 17.8748 72.1339 16.5396C72.1339 15.2044 71.0516 14.1221 69.7164 14.1221C68.3812 14.1221 67.2988 15.2044 67.2988 16.5396C67.2988 17.8748 68.3812 18.9572 69.7164 18.9572Z" fill="#7E8FF2"/>
</svg>
