<svg width="147" height="147" viewBox="0 0 147 147" fill="none" xmlns="http://www.w3.org/2000/svg">
<path d="M73.5 1C33.5232 1 1 33.5232 1 73.5C1 113.477 33.5232 146 73.5 146C113.477 146 146 113.477 146 73.5C146 33.5232 113.477 1 73.5 1Z" fill="#7E8FF2"/>
<path d="M73.5 146C113.541 146 146 113.541 146 73.5C146 33.4594 113.541 1 73.5 1C33.4594 1 1 33.4594 1 73.5C1 113.541 33.4594 146 73.5 146Z" stroke="#E8E5F0" stroke-width="2" stroke-miterlimit="10"/>
<path d="M45.1309 95.5654H101.87" stroke="#E8E5F0" stroke-width="2" stroke-miterlimit="10" stroke-linecap="round" stroke-linejoin="round"/>
<path d="M54.5869 57.7387C54.5869 62.9613 50.3478 67.1953 45.1304 67.1953C39.9126 67.1953 35.6738 62.961 35.6738 57.7387C35.6738 52.5213 39.9126 48.2822 45.1304 48.2822C50.3478 48.2822 54.5869 52.5213 54.5869 57.7387Z" fill="#E8E5F0"/>
<path d="M111.326 57.7387C111.326 62.9613 107.087 67.1953 101.87 67.1953C96.6518 67.1953 92.4131 62.961 92.4131 57.7387C92.4131 52.5213 96.6518 48.2822 101.87 48.2822C107.087 48.2822 111.326 52.5213 111.326 57.7387Z" fill="#E8E5F0"/>
</svg>
