<svg width="147" height="147" viewBox="0 0 147 147" fill="none" xmlns="http://www.w3.org/2000/svg">
<path d="M73.5 1C33.5232 1 1 33.5232 1 73.5C1 113.477 33.5232 146 73.5 146C113.477 146 146 113.477 146 73.5C146 33.5232 113.477 1 73.5 1Z" fill="#7E8FF2"/>
<path d="M73.5 146C113.541 146 146 113.541 146 73.5C146 33.4594 113.541 1 73.5 1C33.4594 1 1 33.4594 1 73.5C1 113.541 33.4594 146 73.5 146Z" stroke="#E8E5F0" stroke-width="2" stroke-miterlimit="10"/>
<path d="M45.1309 105.021H101.87" stroke="#E8E5F0" stroke-width="2" stroke-miterlimit="10" stroke-linecap="round" stroke-linejoin="round"/>
<path d="M32.5215 64.2871C33.824 65.3715 39.6 69.9342 47.9958 69.4453C54.807 69.0485 59.3752 65.5578 60.8911 64.2871" stroke="#E8E5F0" stroke-width="2" stroke-miterlimit="10" stroke-linecap="round" stroke-linejoin="round"/>
<path d="M89.2607 64.2871C90.5632 65.3715 96.3393 69.9342 104.735 69.4453C111.546 69.0485 116.114 65.5578 117.63 64.2871" stroke="#E8E5F0" stroke-width="2" stroke-miterlimit="10" stroke-linecap="round" stroke-linejoin="round"/>
<path d="M22.8711 45.9195C24.4068 46.6366 31.1541 49.5786 39.1486 46.9683C45.6345 44.8506 49.1634 40.3118 50.306 38.6973" stroke="#E8E5F0" stroke-width="2" stroke-miterlimit="10" stroke-linecap="round" stroke-linejoin="round"/>
<path d="M125.958 45.9195C124.423 46.6366 117.675 49.5786 109.681 46.9683C103.195 44.8506 99.6661 40.3118 98.5234 38.6973" stroke="#E8E5F0" stroke-width="2" stroke-miterlimit="10" stroke-linecap="round" stroke-linejoin="round"/>
</svg>
