<svg width="147" height="147" viewBox="0 0 147 147" fill="none" xmlns="http://www.w3.org/2000/svg">
<path d="M73.5 146C113.541 146 146 113.541 146 73.5C146 33.4594 113.541 1 73.5 1C33.4594 1 1 33.4594 1 73.5C1 113.541 33.4594 146 73.5 146Z" fill="#7E8FF2"/>
<path d="M119.505 91.2773C119.543 96.1307 118.611 100.943 116.763 105.431C77.392 114.982 36.6029 106.502 30.1094 105.021C28.3481 100.655 27.4592 95.9854 27.4931 91.2773H27.8399C27.8399 91.2773 74.492 102.594 118.906 91.498L119.505 91.2773Z" fill="#E8E5F0"/>
<path d="M116.765 105.431C111.122 118.891 96.7483 128.221 73.6113 128.221C50.2537 128.221 35.6907 118.67 30.1113 105.021C36.6048 106.503 77.3936 114.982 116.765 105.431Z" fill="#7E8FF2"/>
<path d="M73.5 146C113.541 146 146 113.541 146 73.5C146 33.4594 113.541 1 73.5 1C33.4594 1 1 33.4594 1 73.5C1 113.541 33.4594 146 73.5 146Z" stroke="#E8E5F0" stroke-width="2" stroke-linecap="round" stroke-linejoin="round"/>
<path d="M50.0737 74.1983C55.2964 74.1983 59.5302 66.572 59.5302 57.1646C59.5302 47.7571 55.2964 40.1309 50.0737 40.1309C44.851 40.1309 40.6172 47.7571 40.6172 57.1646C40.6172 66.572 44.851 74.1983 50.0737 74.1983Z" fill="#E8E5F0"/>
<path d="M96.9262 74.211C102.149 74.211 106.383 66.5847 106.383 57.1773C106.383 47.7698 102.149 40.1436 96.9262 40.1436C91.7036 40.1436 87.4697 47.7698 87.4697 57.1773C87.4697 66.5847 91.7036 74.211 96.9262 74.211Z" fill="#E8E5F0"/>
<path d="M119.505 91.2773C119.543 96.1307 118.611 100.943 116.763 105.431C77.392 114.982 36.6029 106.502 30.1094 105.021C28.3481 100.655 27.4592 95.9854 27.4931 91.2773H27.8399C27.8399 91.2773 74.492 102.594 118.906 91.498L119.505 91.2773Z" stroke="#E8E5F0" stroke-width="2" stroke-linecap="round" stroke-linejoin="round"/>
<path d="M116.765 105.431C111.122 118.891 96.7483 128.221 73.6113 128.221C50.2537 128.221 35.6907 118.67 30.1113 105.021C36.6048 106.503 77.3936 114.982 116.765 105.431Z" stroke="#E8E5F0" stroke-width="2" stroke-linecap="round" stroke-linejoin="round"/>
</svg>
