<svg width="147" height="147" viewBox="0 0 147 147" fill="none" xmlns="http://www.w3.org/2000/svg">
<path d="M73.5 146C113.541 146 146 113.541 146 73.5C146 33.4594 113.541 1 73.5 1C33.4594 1 1 33.4594 1 73.5C1 113.541 33.4594 146 73.5 146Z" fill="#7E8FF2"/>
<path d="M116.765 105.431C111.122 118.891 96.7483 128.221 73.6113 128.221C50.2537 128.221 35.6907 118.67 30.1113 105.021C36.6048 106.503 77.3936 114.982 116.765 105.431Z" fill="#7E8FF2"/>
<path d="M73.5 146C113.541 146 146 113.541 146 73.5C146 33.4594 113.541 1 73.5 1C33.4594 1 1 33.4594 1 73.5C1 113.541 33.4594 146 73.5 146Z" stroke="#E8E5F0" stroke-width="2" stroke-linecap="round" stroke-linejoin="round"/>
<path d="M50.0737 74.0409C55.2964 74.0409 59.5302 69.8077 59.5302 64.5859C59.5302 59.364 55.2964 55.1309 50.0737 55.1309C44.851 55.1309 40.6172 59.364 40.6172 64.5859C40.6172 69.8077 44.851 74.0409 50.0737 74.0409Z" fill="#E8E5F0"/>
<path d="M96.9262 74.0536C102.149 74.0536 106.383 69.8204 106.383 64.5986C106.383 59.3767 102.149 55.1436 96.9262 55.1436C91.7036 55.1436 87.4697 59.3767 87.4697 64.5986C87.4697 69.8204 91.7036 74.0536 96.9262 74.0536Z" fill="#E8E5F0"/>
<path d="M106 92.4063C101.768 105.75 90.9854 115 73.63 115C56.1091 115 45.1852 105.531 41 92" stroke="#E8E5F0" stroke-width="2" stroke-linecap="round" stroke-linejoin="round"/>
</svg>
